<svg width="102" height="103" viewBox="0 0 102 103" fill="none" xmlns="http://www.w3.org/2000/svg">
<path d="M28.108 72.889C26.8273 74.3773 26.9922 76.6248 28.4824 77.9061C34.9553 83.4874 42.9775 86.3112 51.0268 86.3112C58.0293 86.3112 65.0539 84.1725 71.0909 79.8528C72.6894 78.7094 73.0589 76.4866 71.916 74.8874C70.7732 73.2907 68.5514 72.921 66.9555 74.0645C56.6498 81.4396 42.7386 80.8016 33.1229 72.5169C31.6351 71.2332 29.3889 71.4007 28.108 72.889Z" fill="white"/>
<path d="M11.1369 41.1291C13.201 39.1282 15.9079 38.0317 18.7749 38.0317C18.834 38.0317 18.8932 38.0317 18.9522 38.0341C20.0409 38.0489 21.1024 38.2239 22.1123 38.5443C19.3143 38.9804 17.1714 41.3928 17.1714 44.3128C17.1714 47.5433 19.7872 50.1603 23.0138 50.1603C26.1418 50.1603 28.6887 47.6985 28.8438 44.6084C29.4694 46.0328 29.7872 47.5876 29.7626 49.1918C29.6665 55.2487 24.6812 60.1006 18.6074 60.0069C15.6739 59.9602 12.935 58.7749 10.8932 56.6655C8.85124 54.5587 7.75277 51.7816 7.7996 48.8469C7.84385 45.912 9.03109 43.1719 11.1369 41.1291ZM72.9349 89.0273C67.1984 92.386 60.9029 94.3401 54.2256 94.8379C42.6418 95.7003 31.4177 91.9991 22.6172 84.4144C16.403 79.0574 11.9276 72.2169 9.52853 64.5805C12.2133 66.1848 15.2847 67.0693 18.4965 67.1209C18.5926 67.1235 18.6887 67.1235 18.7847 67.1235C28.632 67.1235 36.7181 59.1889 36.8734 49.3026C36.9497 44.468 35.1395 39.8946 31.7748 36.4201C28.4103 32.9482 23.8981 30.9941 19.0631 30.9177C16.6074 30.8806 14.2208 31.3317 12.0113 32.2211C13.8463 28.4954 16.2133 25.016 19.073 21.9211C20.4055 20.4795 20.3168 18.2273 18.8733 16.8941C17.4326 15.561 15.1813 15.6498 13.8487 17.0912C4.3561 27.3693 -0.493553 41.2621 0.543289 55.2117C1.5458 68.6955 7.73554 80.9794 17.9744 89.8061C27.2403 97.79 38.8142 102.077 50.9202 102.077C52.1912 102.077 53.4719 102.028 54.7527 101.935C62.5212 101.355 69.8488 99.0786 76.5261 95.1704C78.2231 94.1774 78.792 91.9991 77.7995 90.3013C76.8093 88.606 74.632 88.0367 72.9349 89.0273Z" fill="white"/>
<path d="M90.9651 57.5417C88.8592 59.5845 86.0735 60.6812 83.1499 60.6368C77.0933 60.5431 72.2459 55.5359 72.3396 49.479C72.4331 43.479 77.3419 38.6639 83.3198 38.6639H83.4946C85.0588 38.6886 86.544 39.0433 87.8839 39.6594C87.7533 39.6495 87.6227 39.6397 87.4899 39.6397C84.2633 39.6397 81.6449 42.2567 81.6449 45.4847C81.6449 48.7126 84.2633 51.3295 87.4899 51.3295C90.7165 51.3295 93.3323 48.7126 93.3323 45.4847C93.3323 45.3515 93.3222 45.2235 93.3124 45.0928C93.9726 46.5344 94.3298 48.1385 94.3025 49.8239C94.2582 52.7588 93.071 55.4989 90.9651 57.5417ZM101.453 47.6999C100.45 34.2161 94.2607 21.9298 84.0218 13.1056C73.783 4.2815 60.7239 -0.0259476 47.2435 0.977013C41.0982 1.43545 35.1746 2.97561 29.6352 5.55795C27.8544 6.38601 27.0834 8.50272 27.9134 10.2842C28.7435 12.0658 30.8593 12.8371 32.6377 12.0067C37.3962 9.79138 42.4874 8.46564 47.7707 8.07389C59.3542 7.21133 70.5785 10.9126 79.379 18.4973C84.1055 22.5705 87.8271 27.5038 90.3937 32.9914C88.3049 32.1018 86.0143 31.5869 83.6057 31.5499C73.6499 31.3921 65.3864 39.3859 65.2287 49.3681C65.1524 54.2028 66.9626 58.7763 70.3272 62.2508C73.6917 65.7227 78.2041 67.6767 83.0367 67.7532C83.1351 67.7532 83.2336 67.7556 83.3297 67.7556C86.4799 67.7532 89.5094 66.9474 92.1893 65.4344C90.5143 70.3726 87.9455 75.0102 84.544 79.1351C83.2951 80.6507 83.5096 82.893 85.0243 84.1423C85.6868 84.6894 86.4872 84.9554 87.2853 84.9554C88.3101 84.9554 89.3273 84.5143 90.0291 83.6618C98.3691 73.5489 102.426 60.7773 101.453 47.6999Z" fill="white"/>
</svg>
