<svg width="100" height="125" viewBox="0 0 100 125" fill="none" xmlns="http://www.w3.org/2000/svg">
<g filter="url(#filter0_i_389_2252)">
<path d="M83.4607 64.7107L52.2107 95.9607C51.9205 96.2513 51.5758 96.4818 51.1965 96.639C50.8171 96.7963 50.4105 96.8772 49.9998 96.8772C49.5891 96.8772 49.1825 96.7963 48.8031 96.639C48.4237 96.4818 48.0791 96.2513 47.7888 95.9607L16.5388 64.7107C15.9525 64.1243 15.623 63.329 15.623 62.4998C15.623 61.6705 15.9525 60.8752 16.5388 60.2888C17.1252 59.7025 17.9205 59.373 18.7498 59.373C19.579 59.373 20.3743 59.7025 20.9607 60.2888L49.9998 89.3318L79.0389 60.2888C79.3292 59.9985 79.6739 59.7682 80.0532 59.6111C80.4326 59.4539 80.8392 59.373 81.2498 59.373C81.6604 59.373 82.067 59.4539 82.4463 59.6111C82.8257 59.7682 83.1704 59.9985 83.4607 60.2888C83.7511 60.5792 83.9814 60.9239 84.1385 61.3032C84.2957 61.6826 84.3765 62.0892 84.3765 62.4998C84.3765 62.9104 84.2957 63.317 84.1385 63.6963C83.9814 64.0757 83.7511 64.4204 83.4607 64.7107Z" fill="#2E86AB" fill-opacity="0.24"/>
</g>
<path d="M78.6853 59.9353L49.9998 88.6247L21.3143 59.9353L21.3143 59.9353C20.6341 59.2551 19.7117 58.873 18.7498 58.873C17.7879 58.873 16.8654 59.2551 16.1853 59.9353C15.5051 60.6154 15.123 61.5379 15.123 62.4998C15.123 63.4617 15.5051 64.3841 16.1853 65.0643L47.4351 96.3141C47.4352 96.3141 47.4352 96.3142 47.4353 96.3143C47.7719 96.6512 48.1716 96.9185 48.6116 97.1009C49.0517 97.2833 49.5234 97.3772 49.9998 97.3772C50.4762 97.3772 50.9479 97.2833 51.3879 97.1009C51.828 96.9185 52.2278 96.6511 52.5645 96.3141L83.8143 65.0643C84.1511 64.7275 84.4182 64.3277 84.6005 63.8877C84.7827 63.4477 84.8765 62.9761 84.8765 62.4998C84.8765 62.0235 84.7827 61.5519 84.6005 61.1119C84.4182 60.6719 84.1511 60.2721 83.8143 59.9353C83.4775 59.5985 83.0777 59.3314 82.6377 59.1491C82.1977 58.9669 81.7261 58.873 81.2498 58.873C80.7735 58.873 80.3019 58.9669 79.8619 59.1491L80.0532 59.6111L79.8619 59.1491C79.4219 59.3314 79.0221 59.5985 78.6853 59.9353L78.6853 59.9353Z" stroke="#2E86AB"/>
<g filter="url(#filter1_i_389_2252)">
<path d="M74.5951 51.7826L51.1576 75.2201C50.9399 75.438 50.6814 75.6108 50.3969 75.7288C50.1123 75.8467 49.8074 75.9074 49.4993 75.9074C49.1913 75.9074 48.8864 75.8467 48.6018 75.7288C48.3173 75.6108 48.0588 75.438 47.8411 75.2201L24.4036 51.7826C23.9639 51.3428 23.7168 50.7463 23.7168 50.1244C23.7168 49.5024 23.9639 48.9059 24.4036 48.4661C24.8434 48.0264 25.4399 47.7793 26.0619 47.7793C26.6838 47.7793 27.2803 48.0264 27.7201 48.4661L49.4993 70.2484L71.2786 48.4661C71.4964 48.2484 71.7549 48.0757 72.0394 47.9578C72.324 47.84 72.6289 47.7793 72.9369 47.7793C73.2448 47.7793 73.5498 47.84 73.8343 47.9578C74.1188 48.0757 74.3773 48.2484 74.5951 48.4661C74.8128 48.6839 74.9855 48.9424 75.1034 49.2269C75.2212 49.5115 75.2819 49.8164 75.2819 50.1244C75.2819 50.4323 75.2212 50.7372 75.1034 51.0218C74.9855 51.3063 74.8128 51.5648 74.5951 51.7826Z" fill="#2E86AB" fill-opacity="0.24"/>
</g>
<path d="M28.0736 48.1126L28.0736 48.1126C27.5401 47.579 26.8164 47.2793 26.0619 47.2793C25.3073 47.2793 24.5836 47.579 24.0501 48.1126C23.5165 48.6461 23.2168 49.3698 23.2168 50.1244C23.2168 50.8789 23.5165 51.6026 24.0501 52.1361L47.4874 75.5734C47.7515 75.8378 48.0651 76.0476 48.4104 76.1907C48.7556 76.3338 49.1256 76.4074 49.4993 76.4074C49.8731 76.4074 50.2431 76.3338 50.5883 76.1907C50.9336 76.0476 51.2472 75.8378 51.5113 75.5734L74.9486 52.1361C75.2128 51.8719 75.4224 51.5583 75.5653 51.2131C75.7083 50.8679 75.7819 50.498 75.7819 50.1244C75.7819 49.7507 75.7083 49.3808 75.5653 49.0356C75.4224 48.6904 75.2128 48.3768 74.9486 48.1126C74.6844 47.8484 74.3708 47.6388 74.0256 47.4959C73.6804 47.3529 73.3105 47.2793 72.9369 47.2793C72.5632 47.2793 72.1933 47.3529 71.8481 47.4959C71.5029 47.6388 71.1893 47.8484 70.9251 48.1126L70.9251 48.1126L49.4993 69.5412L28.0736 48.1126Z" stroke="#2E86AB"/>
<g filter="url(#filter2_i_389_2252)">
<path d="M66.7313 41.8563L51.1063 57.4813C50.9612 57.6266 50.7889 57.7419 50.5992 57.8205C50.4095 57.8991 50.2062 57.9396 50.0009 57.9396C49.7955 57.9396 49.5922 57.8991 49.4025 57.8205C49.2128 57.7419 49.0405 57.6266 48.8954 57.4813L33.2704 41.8563C32.9772 41.5631 32.8125 41.1655 32.8125 40.7509C32.8125 40.3362 32.9772 39.9386 33.2704 39.6454C33.5636 39.3522 33.9612 39.1875 34.3759 39.1875C34.7905 39.1875 35.1881 39.3522 35.4813 39.6454L50.0009 54.1669L64.5204 39.6454C64.6656 39.5002 64.8379 39.3851 65.0276 39.3065C65.2173 39.2279 65.4206 39.1875 65.6259 39.1875C65.8312 39.1875 66.0345 39.2279 66.2241 39.3065C66.4138 39.3851 66.5862 39.5002 66.7313 39.6454C66.8765 39.7906 66.9917 39.9629 67.0702 40.1526C67.1488 40.3423 67.1892 40.5456 67.1892 40.7509C67.1892 40.9562 67.1488 41.1595 67.0702 41.3491C66.9917 41.5388 66.8765 41.7112 66.7313 41.8563Z" fill="#2E86AB" fill-opacity="0.24"/>
</g>
<path d="M64.1668 39.2919L50.0009 53.4597L35.8349 39.2919L35.8349 39.2918C35.4479 38.9049 34.9231 38.6875 34.3759 38.6875C33.8286 38.6875 33.3038 38.9049 32.9168 39.2918C32.5299 39.6788 32.3125 40.2036 32.3125 40.7509C32.3125 41.2981 32.5299 41.8229 32.9168 42.2099L48.5416 57.8347C48.5417 57.8348 48.5418 57.8348 48.5418 57.8349C48.7334 58.0266 48.9608 58.1786 49.2111 58.2824C49.4614 58.3862 49.7298 58.4396 50.0009 58.4396C50.2719 58.4396 50.5403 58.3862 50.7907 58.2824C51.0411 58.1786 51.2685 58.0265 51.4601 57.8347L67.0849 42.2099C67.2765 42.0183 67.4285 41.7908 67.5322 41.5405C67.6359 41.2902 67.6892 41.0218 67.6892 40.7509C67.6892 40.4799 67.6359 40.2116 67.5322 39.9612C67.4285 39.7109 67.2765 39.4835 67.0849 39.2918C66.8933 39.1002 66.6658 38.9483 66.4155 38.8446C66.1651 38.7409 65.8968 38.6875 65.6259 38.6875C65.3549 38.6875 65.0866 38.7409 64.8363 38.8446L65.0276 39.3065L64.8363 38.8446C64.5859 38.9483 64.3585 39.1002 64.1668 39.2918L64.1668 39.2919Z" stroke="#2E86AB"/>
<defs>
<filter id="filter0_i_389_2252" x="14.623" y="58.373" width="70.7539" height="39.5039" filterUnits="userSpaceOnUse" color-interpolation-filters="sRGB">
<feFlood flood-opacity="0" result="BackgroundImageFix"/>
<feBlend mode="normal" in="SourceGraphic" in2="BackgroundImageFix" result="shape"/>
<feColorMatrix in="SourceAlpha" type="matrix" values="0 0 0 0 0 0 0 0 0 0 0 0 0 0 0 0 0 0 127 0" result="hardAlpha"/>
<feOffset/>
<feGaussianBlur stdDeviation="12"/>
<feComposite in2="hardAlpha" operator="arithmetic" k2="-1" k3="1"/>
<feColorMatrix type="matrix" values="0 0 0 0 0.180392 0 0 0 0 0.52549 0 0 0 0 0.670588 0 0 0 0.06 0"/>
<feBlend mode="normal" in2="shape" result="effect1_innerShadow_389_2252"/>
</filter>
<filter id="filter1_i_389_2252" x="22.7168" y="46.7793" width="53.5645" height="30.1289" filterUnits="userSpaceOnUse" color-interpolation-filters="sRGB">
<feFlood flood-opacity="0" result="BackgroundImageFix"/>
<feBlend mode="normal" in="SourceGraphic" in2="BackgroundImageFix" result="shape"/>
<feColorMatrix in="SourceAlpha" type="matrix" values="0 0 0 0 0 0 0 0 0 0 0 0 0 0 0 0 0 0 127 0" result="hardAlpha"/>
<feOffset/>
<feGaussianBlur stdDeviation="12"/>
<feComposite in2="hardAlpha" operator="arithmetic" k2="-1" k3="1"/>
<feColorMatrix type="matrix" values="0 0 0 0 0.180392 0 0 0 0 0.52549 0 0 0 0 0.670588 0 0 0 0.06 0"/>
<feBlend mode="normal" in2="shape" result="effect1_innerShadow_389_2252"/>
</filter>
<filter id="filter2_i_389_2252" x="31.8125" y="38.1875" width="36.377" height="20.752" filterUnits="userSpaceOnUse" color-interpolation-filters="sRGB">
<feFlood flood-opacity="0" result="BackgroundImageFix"/>
<feBlend mode="normal" in="SourceGraphic" in2="BackgroundImageFix" result="shape"/>
<feColorMatrix in="SourceAlpha" type="matrix" values="0 0 0 0 0 0 0 0 0 0 0 0 0 0 0 0 0 0 127 0" result="hardAlpha"/>
<feOffset/>
<feGaussianBlur stdDeviation="12"/>
<feComposite in2="hardAlpha" operator="arithmetic" k2="-1" k3="1"/>
<feColorMatrix type="matrix" values="0 0 0 0 0.180392 0 0 0 0 0.52549 0 0 0 0 0.670588 0 0 0 0.06 0"/>
<feBlend mode="normal" in2="shape" result="effect1_innerShadow_389_2252"/>
</filter>
</defs>
</svg>
