<svg width="670" height="895" viewBox="0 0 670 895" fill="none" xmlns="http://www.w3.org/2000/svg">
<g opacity="0.24" filter="url(#filter0_di_215_1765)">
<mask id="path-1-inside-1_215_1765" fill="white">
<path fill-rule="evenodd" clip-rule="evenodd" d="M361.643 57.2972C355.382 66.3202 346.513 73.2143 336.224 77.0558C297.14 91.7297 261.436 114.173 231.268 143.029C201.1 171.886 177.093 206.557 160.697 244.95C144.301 283.343 135.857 324.661 135.874 366.408C135.89 408.155 144.368 449.466 160.795 487.846L190.346 475.195C201.844 470.273 214.696 469.499 226.702 473.006C232.27 474.633 237.496 477.133 242.201 480.378C250.056 526.156 269.252 570.301 299.708 608.192C276.244 594.086 254.394 576.247 235.016 554.661C227.488 546.28 217.524 540.467 206.523 538.041C195.523 535.614 184.038 536.695 173.683 541.132L136.276 557.153C105.58 507.531 87.3048 451.237 83.0004 393.047C78.696 334.857 88.4896 276.487 111.55 222.888C134.611 169.29 170.259 122.043 215.469 85.157C260.68 48.2706 314.12 22.8324 371.257 11V26.5705C371.259 37.5532 367.905 48.2742 361.643 57.2972ZM346.508 630.69L339.003 648.178C324.303 635.906 311.203 622.495 299.708 608.192C314.722 617.218 330.397 624.716 346.508 630.69ZM335.581 566.455C331.312 564.126 327.113 561.658 322.99 559.053C296.513 542.325 273.765 520.324 256.164 494.42C252.388 488.877 247.642 484.13 242.201 480.378C233.961 432.353 238.203 382.53 255.021 336.244L256.37 336.823C265.236 340.639 274.968 341.995 284.54 340.746C294.112 339.498 303.17 335.692 310.761 329.729C313.838 327.301 316.974 324.956 320.165 322.695C307.296 346.02 298.61 371.457 294.541 397.855C289.787 428.693 291.435 460.18 299.381 490.354C306.604 517.78 318.89 543.587 335.581 566.455ZM574.319 553.973C552.621 568.942 528.46 580.057 502.898 586.79C472.612 594.766 441.009 596.42 410.057 591.648C383.924 587.619 358.728 579.083 335.581 566.455C337.253 568.745 338.969 571.007 340.729 573.237C346.692 580.828 350.498 589.886 351.746 599.458C352.995 609.03 351.639 618.761 347.823 627.627L346.508 630.69C392.356 647.688 441.737 652.344 489.478 644.749C487.145 648.654 485.299 652.865 484.006 657.292C480.499 669.298 481.273 682.149 486.195 693.648L498.846 723.199C460.466 739.626 419.155 748.103 377.408 748.12C335.661 748.137 294.343 739.693 255.95 723.297C217.557 706.901 182.886 682.894 154.029 652.726C125.173 622.557 102.73 586.853 88.0558 547.77C84.2143 537.481 77.3202 528.612 68.2972 522.35C59.2742 516.089 48.5532 512.734 37.5705 512.736H22C33.8324 569.873 59.2706 623.313 96.157 668.524C133.043 713.735 180.29 749.383 233.888 772.443C287.487 795.504 345.857 805.298 404.047 800.993C462.237 796.689 518.531 778.414 568.153 747.718L552.132 710.31C547.695 699.956 546.614 688.471 549.041 677.47C551.467 666.469 557.28 656.505 565.661 648.978C585.015 631.604 601.357 612.242 614.696 591.512C631.49 578.805 647.152 563.972 661.305 547.018L641.332 538.445C658.435 492.829 663.292 443.671 655.994 396.085C659.977 398.504 664.286 400.411 668.822 401.736C680.784 405.229 693.588 404.459 705.044 399.555L734.486 386.952C750.852 425.187 759.299 466.342 759.316 507.932C759.333 549.522 750.919 590.684 734.584 628.932C718.248 667.18 694.33 701.721 664.273 730.469C634.215 759.216 598.643 781.575 559.704 796.193C549.452 800.02 540.616 806.888 534.378 815.877C528.139 824.866 524.797 835.547 524.799 846.488V862C581.725 850.212 634.969 824.87 680.013 788.123C725.057 751.375 760.574 704.307 783.549 650.911C806.525 597.514 816.283 539.364 811.994 481.393C807.706 423.422 789.498 367.341 758.915 317.906L721.645 333.867C711.329 338.287 699.886 339.364 688.926 336.946C677.966 334.529 668.038 328.738 660.539 320.389C643.714 301.648 625.019 285.743 605.02 272.664C591.769 254.594 576.099 237.783 558.018 222.689L549.165 243.315C549.013 243.667 548.865 244.02 548.722 244.375C502.659 227.445 453.049 222.998 405.168 230.94C408.509 226.169 411.078 220.85 412.735 215.176C416.229 203.214 415.459 190.409 410.555 178.953L397.952 149.511C436.187 133.145 477.342 124.698 518.932 124.682C560.522 124.665 601.684 133.078 639.932 149.414C678.18 165.749 712.721 189.668 741.469 219.725C770.216 249.782 792.575 285.354 807.193 324.294C811.02 334.545 817.888 343.382 826.877 349.62C835.866 355.858 846.547 359.2 857.488 359.198H873C861.212 302.272 835.87 249.029 799.122 203.984C762.375 158.94 715.307 123.424 661.91 100.448C608.514 77.4722 550.364 67.7148 492.393 72.0033C434.422 76.2918 378.341 94.4998 328.906 125.083L344.867 162.352C349.287 172.669 350.364 184.111 347.946 195.071C345.529 206.032 339.738 215.959 331.389 223.459C310.467 242.242 293.079 263.356 279.211 286.014C263.629 298.144 249.061 312.142 235.82 328.003L255.021 336.244C261.319 318.911 269.381 302.075 279.211 286.014C316.761 256.782 360.203 238.398 405.168 230.94C401.466 236.226 396.815 240.842 391.402 244.529C365.596 262.066 343.678 284.73 327.013 311.109C324.613 314.908 322.33 318.772 320.165 322.695C342.376 306.963 367.26 295.329 393.643 288.381C423.817 280.435 455.304 278.787 486.143 283.541C514.602 287.928 541.947 297.681 566.729 312.258C580.813 333.284 591.323 356.543 597.79 381.096C605.766 411.381 607.42 442.985 602.648 473.937C598.294 502.178 588.676 529.324 574.319 553.973ZM566.729 312.258C563.441 307.348 559.958 302.561 556.285 297.907C550.3 290.288 546.479 281.196 545.226 271.589C544.022 262.362 545.23 252.987 548.722 244.375C568.26 251.556 587.16 260.983 605.02 272.664C632.262 309.814 649.277 352.283 655.994 396.085C649.474 392.126 643.823 386.795 639.468 380.402C621.932 354.596 599.268 332.678 572.889 316.013C570.854 314.728 568.801 313.476 566.729 312.258ZM574.319 553.973C578.328 551.208 582.253 548.311 586.087 545.285C593.706 539.3 602.797 535.479 612.405 534.226C622.012 532.973 631.78 534.334 640.679 538.165L641.332 538.445C634.442 556.82 625.566 574.621 614.696 591.512C577.195 619.887 534.052 637.658 489.478 644.749C493.472 638.064 498.895 632.275 505.42 627.83C531.324 610.228 553.325 587.48 570.053 561.004C571.518 558.684 572.941 556.34 574.319 553.973ZM696.255 121.362C684.944 122.192 673.65 119.547 663.885 113.779C626.726 91.9224 585.524 77.8238 542.765 72.3344C500.006 66.845 456.579 70.0786 415.104 81.84C373.63 93.6014 334.97 113.647 301.458 140.765C267.947 167.883 240.279 201.512 220.126 239.621L249.47 255.136C260.888 261.174 269.853 270.992 274.832 282.909C277.139 288.431 278.524 294.245 278.975 300.125C247.316 336.151 224.331 380.223 213.676 429.275C209.772 401.283 209.912 372.166 214.663 342.6C216.505 331.115 214.703 319.34 209.509 308.931C204.316 298.522 195.991 290.001 185.706 284.567L148.553 264.932C168.47 208.065 201.808 156.841 245.739 115.604C289.67 74.3672 342.899 44.334 400.911 28.0519C458.923 11.7698 520.005 9.71924 578.978 22.0741C637.951 34.429 693.075 60.8249 739.673 99.0228L727.17 109.132C718.352 116.264 707.565 120.531 696.255 121.362ZM225.997 481.482L207.076 486.81C207.386 467.032 209.652 447.798 213.676 429.275C216.175 447.198 220.332 464.66 225.997 481.482ZM270.481 430.987C269.581 426.055 268.838 421.088 268.254 416.094C264.496 383.973 267.393 351.423 276.766 320.47C278.767 313.834 279.497 306.936 278.975 300.125C312.187 262.332 354.945 233.394 403.029 216.848L403.44 218.311C406.132 227.908 411.362 236.603 418.579 243.478C425.796 250.354 434.734 255.156 444.45 257.38C448.395 258.274 452.311 259.269 456.195 260.362C429.113 265.173 403.051 274.714 379.215 288.583C351.365 304.788 327.151 326.554 308.081 352.526C290.751 376.128 278.007 402.743 270.481 430.987ZM435.503 614.609C409.399 606.904 384.789 594.72 362.789 578.567C336.721 559.427 314.874 535.123 298.61 507.171C284.874 483.564 275.368 457.781 270.481 430.987C269.726 433.822 269.023 436.674 268.373 439.54C266.149 449.257 261.347 458.194 254.471 465.411C247.596 472.629 238.901 477.859 229.304 480.55L225.997 481.482C242.113 529.335 270.436 572.013 307.532 605.418C302.881 606.08 298.301 607.332 293.906 609.168C281.988 614.147 272.171 623.112 266.133 634.53L250.618 663.875C212.509 643.722 178.88 616.054 151.762 582.542C124.643 549.031 104.598 510.371 92.8366 468.896C81.0752 427.422 77.8416 383.994 83.3309 341.236C88.8204 298.477 102.919 257.274 124.775 220.116C130.543 210.351 133.189 199.057 132.358 187.746C131.528 176.436 127.261 165.649 120.129 156.831L110.019 144.328C71.8214 190.926 45.4256 246.049 33.0707 305.022C20.7158 363.995 22.7664 425.078 39.0484 483.09C55.3305 541.102 85.3638 594.331 126.601 638.262C167.838 682.193 219.062 715.531 275.928 735.447L295.564 698.295C300.998 688.01 309.518 679.685 319.927 674.491C330.336 669.298 342.111 667.495 353.597 669.338C380.113 673.599 406.268 674.151 431.573 671.404C452.683 676.64 474.767 679.587 497.573 679.944L491.488 658.335C539.218 642.452 581.843 614.437 615.315 577.684C615.959 582.452 617.224 587.149 619.105 591.65C624.066 603.524 632.998 613.305 644.374 619.321L673.609 634.78C653.533 672.746 625.97 706.249 592.585 733.265C559.2 760.281 520.685 780.25 479.366 791.966C438.047 803.682 394.782 806.902 352.183 801.431C309.584 795.96 268.534 781.912 231.514 760.136C221.785 754.389 210.533 751.753 199.265 752.579C187.996 753.406 177.25 757.657 168.465 764.762L156.01 774.834C202.435 812.892 257.354 839.192 316.107 851.503C374.86 863.815 435.715 861.774 493.509 845.555C551.303 829.336 604.332 799.417 648.097 758.335C691.863 717.253 725.074 666.221 744.913 609.566L707.899 590.003C697.652 584.588 689.358 576.099 684.183 565.729C679.008 555.358 677.213 543.627 679.048 532.184C683.172 506.509 683.806 481.174 681.325 456.625C687.233 434.25 690.56 410.75 690.94 386.428L668.63 392.711C668.247 392.818 667.867 392.929 667.488 393.044C651.175 345.062 622.535 302.337 585.067 269.044C591.07 268.63 597.009 267.239 602.643 264.885C614.517 259.924 624.298 250.992 630.314 239.617L645.773 210.381C683.739 230.457 717.242 258.02 744.258 291.406C771.274 324.791 791.243 363.306 802.959 404.625C814.675 445.943 817.895 489.209 812.424 531.808C806.953 574.407 792.906 615.456 771.129 652.477C765.382 662.206 762.746 673.458 763.573 684.726C764.399 695.995 768.65 706.741 775.756 715.525L785.827 727.981C823.885 681.556 850.185 626.637 862.496 567.884C874.808 509.131 872.767 448.276 856.548 390.482C840.329 332.688 810.41 279.659 769.328 235.893C728.246 192.128 677.214 158.917 620.56 139.077L600.996 176.091C595.581 186.339 587.092 194.633 576.722 199.807C566.351 204.982 554.62 206.778 543.177 204.943C514.506 200.337 486.259 200.084 459.057 203.661C439.204 199.026 418.509 196.417 397.18 196.083L403.029 216.848C421.032 210.653 439.782 206.195 459.057 203.661C506.913 214.833 549.882 237.78 585.067 269.044C578.42 269.503 571.696 268.765 565.222 266.813C534.385 257.477 501.956 254.592 469.954 258.337C465.342 258.877 460.754 259.553 456.195 260.362C483.252 267.983 508.754 280.412 531.465 297.088C557.437 316.158 579.203 340.372 595.408 368.222C610.364 393.925 620.286 422.217 624.671 451.583C616.932 476.542 605.079 500.08 589.563 521.212C570.424 547.28 546.12 569.127 518.167 585.391C492.663 600.231 464.619 610.133 435.503 614.609ZM624.671 451.583C626.479 445.753 628.063 439.845 629.416 433.873C631.648 424.12 636.468 415.149 643.369 407.905C649.996 400.949 658.307 395.832 667.488 393.044C674.408 413.398 679.109 434.698 681.325 456.625C669.18 502.618 646.125 543.853 615.315 577.684C614.26 569.877 614.871 561.878 617.178 554.229C626.514 523.392 629.399 490.963 625.654 458.961C625.365 456.495 625.037 454.035 624.671 451.583ZM435.503 614.609C440.329 616.033 445.207 617.305 450.128 618.42C459.881 620.651 468.852 625.471 476.096 632.372C483.34 639.273 488.589 648 491.29 657.633L491.488 658.335C472.257 664.734 452.197 669.165 431.573 671.404C384.443 659.712 342.164 636.606 307.532 605.418C315.492 604.285 323.661 604.881 331.467 607.235C362.419 616.607 394.97 619.505 427.091 615.747C429.904 615.418 432.708 615.038 435.503 614.609Z"/>
</mask>
<path d="M336.224 77.0558L335.174 74.2453L335.169 74.2472L336.224 77.0558ZM231.268 143.029L233.342 145.197L231.268 143.029ZM160.697 244.95L157.938 243.772H157.938L160.697 244.95ZM135.874 366.408L132.874 366.409L135.874 366.408ZM160.795 487.846L158.037 489.026L159.217 491.784L161.976 490.603L160.795 487.846ZM190.346 475.195L189.165 472.437L189.165 472.437L190.346 475.195ZM226.702 473.006L225.861 475.886L226.702 473.006ZM235.016 554.661L237.248 552.657L237.248 552.656L235.016 554.661ZM206.523 538.041L205.877 540.97H205.877L206.523 538.041ZM173.683 541.132L174.864 543.889L174.865 543.889L173.683 541.132ZM136.276 557.153L133.725 558.731L135.083 560.928L137.457 559.911L136.276 557.153ZM83.0004 393.047L85.9922 392.826L83.0004 393.047ZM111.55 222.888L114.306 224.074L111.55 222.888ZM215.469 85.157L213.573 82.8325L215.469 85.157ZM371.257 11H374.257V7.31508L370.649 8.06233L371.257 11ZM371.257 26.5705H368.257V26.571L371.257 26.5705ZM339.003 648.178L337.08 650.481L340.171 653.061L341.76 649.361L339.003 648.178ZM322.99 559.053L321.387 561.589L322.99 559.053ZM256.164 494.42L258.645 492.734L258.643 492.731L256.164 494.42ZM256.37 336.823L257.556 334.067L257.553 334.066L256.37 336.823ZM284.54 340.746L284.928 343.721H284.928L284.54 340.746ZM310.761 329.729L312.614 332.088L312.619 332.084L310.761 329.729ZM294.541 397.855L291.576 397.398L294.541 397.855ZM299.381 490.354L302.282 489.59L299.381 490.354ZM502.898 586.79L502.134 583.889L502.898 586.79ZM410.057 591.648L409.599 594.613H409.6L410.057 591.648ZM340.729 573.237L343.088 571.384L343.084 571.379L340.729 573.237ZM351.746 599.458L348.772 599.846L351.746 599.458ZM347.823 627.627L345.067 626.441L345.066 626.444L347.823 627.627ZM484.006 657.292L486.886 658.133L484.006 657.292ZM486.195 693.648L483.437 694.829L483.437 694.829L486.195 693.648ZM498.846 723.199L500.026 725.957L502.784 724.776L501.603 722.018L498.846 723.199ZM255.95 723.297L254.772 726.056L255.95 723.297ZM154.029 652.726L151.861 654.799L154.029 652.726ZM88.0558 547.77L85.2453 548.819L85.2472 548.824L88.0558 547.77ZM68.2972 522.35L70.0075 519.886H70.0075L68.2972 522.35ZM37.5705 512.736V515.736H37.571L37.5705 512.736ZM22 512.736V509.736H18.3151L19.0623 513.345L22 512.736ZM96.157 668.524L93.8325 670.421H93.8325L96.157 668.524ZM233.888 772.443L232.703 775.199L233.888 772.443ZM404.047 800.993L403.826 798.001L404.047 800.993ZM568.153 747.718L569.731 750.269L571.928 748.91L570.911 746.536L568.153 747.718ZM552.132 710.31L554.889 709.129L554.889 709.129L552.132 710.31ZM549.041 677.47L551.97 678.116L549.041 677.47ZM565.661 648.978L563.657 646.746L563.656 646.746L565.661 648.978ZM661.305 547.018L663.608 548.941L666.188 545.849L662.488 544.261L661.305 547.018ZM668.822 401.736L667.981 404.615H667.981L668.822 401.736ZM705.044 399.555L706.225 402.313L706.225 402.313L705.044 399.555ZM734.486 386.952L737.244 385.772L736.064 383.014L733.306 384.194L734.486 386.952ZM664.273 730.469L662.199 728.301L664.273 730.469ZM559.704 796.193L560.753 799.004L560.758 799.002L559.704 796.193ZM534.378 815.877L536.842 817.588H536.842L534.378 815.877ZM524.799 846.488H527.799V846.488L524.799 846.488ZM524.799 862H521.799V865.685L525.407 864.938L524.799 862ZM680.013 788.123L681.909 790.447L680.013 788.123ZM783.549 650.911L786.305 652.096L783.549 650.911ZM758.915 317.906L761.466 316.328L760.107 314.132L757.734 315.148L758.915 317.906ZM721.645 333.867L720.464 331.109L720.464 331.109L721.645 333.867ZM688.926 336.946L689.572 334.017L688.926 336.946ZM660.539 320.389L658.306 322.393L658.307 322.393L660.539 320.389ZM558.018 222.689L559.94 220.386L556.849 217.805L555.261 221.506L558.018 222.689ZM549.165 243.315L551.92 244.501L551.922 244.498L549.165 243.315ZM412.735 215.176L415.615 216.017L412.735 215.176ZM410.555 178.953L413.313 177.773L413.313 177.772L410.555 178.953ZM397.952 149.511L396.772 146.753L394.014 147.934L395.194 150.692L397.952 149.511ZM639.932 149.414L638.753 152.173L639.932 149.414ZM741.469 219.725L739.3 221.798L741.469 219.725ZM807.193 324.294L810.004 323.245L810.002 323.24L807.193 324.294ZM857.488 359.198V356.198H857.488L857.488 359.198ZM873 359.198V362.198H876.685L875.938 358.59L873 359.198ZM799.122 203.984L796.798 205.881L799.122 203.984ZM661.91 100.448L663.096 97.6923L661.91 100.448ZM492.393 72.0033L492.172 69.0115L492.393 72.0033ZM328.906 125.083L327.327 122.532L325.131 123.89L326.148 126.264L328.906 125.083ZM344.867 162.352L342.109 163.533L342.109 163.534L344.867 162.352ZM347.946 195.071L350.876 195.718V195.718L347.946 195.071ZM331.389 223.459L333.393 225.691L333.393 225.691L331.389 223.459ZM235.82 328.003L233.517 326.08L230.936 329.171L234.637 330.76L235.82 328.003ZM391.402 244.529L393.088 247.01L393.091 247.008L391.402 244.529ZM327.013 311.109L324.477 309.507L327.013 311.109ZM393.643 288.381L392.879 285.48L393.643 288.381ZM486.143 283.541L486.6 280.576L486.143 283.541ZM597.79 381.096L600.691 380.332L597.79 381.096ZM602.648 473.937L599.683 473.48L602.648 473.937ZM556.285 297.907L553.926 299.76L553.93 299.765L556.285 297.907ZM545.226 271.589L542.251 271.977V271.977L545.226 271.589ZM639.468 380.402L636.987 382.088L636.989 382.091L639.468 380.402ZM572.889 316.013L574.491 313.477L572.889 316.013ZM586.087 545.285L584.234 542.926L584.229 542.93L586.087 545.285ZM640.679 538.165L639.492 540.92L639.495 540.922L640.679 538.165ZM505.42 627.83L503.734 625.348L503.731 625.35L505.42 627.83ZM570.053 561.004L567.517 559.401L570.053 561.004ZM663.885 113.779L665.41 111.196L665.406 111.193L663.885 113.779ZM301.458 140.765L303.346 143.097L301.458 140.765ZM220.126 239.621L217.474 238.219L216.071 240.871L218.724 242.273L220.126 239.621ZM249.47 255.136L250.873 252.484L250.873 252.484L249.47 255.136ZM274.832 282.909L277.601 281.753L274.832 282.909ZM214.663 342.6L217.625 343.076L217.625 343.076L214.663 342.6ZM209.509 308.931L206.825 310.27L209.509 308.931ZM185.706 284.567L184.304 287.22L184.304 287.22L185.706 284.567ZM148.553 264.932L145.722 263.94L144.868 266.378L147.152 267.584L148.553 264.932ZM245.739 115.604L243.686 113.417L245.739 115.604ZM400.911 28.0519L401.722 30.9403L400.911 28.0519ZM578.978 22.0741L578.363 25.0104L578.978 22.0741ZM739.673 99.0228L741.559 101.356L744.424 99.0388L741.575 96.7027L739.673 99.0228ZM727.17 109.132L725.284 106.799L725.283 106.8L727.17 109.132ZM207.076 486.81L204.076 486.763L204.013 490.79L207.889 489.698L207.076 486.81ZM268.254 416.094L265.274 416.443L268.254 416.094ZM276.766 320.47L279.637 321.34L279.638 321.337L276.766 320.47ZM403.44 218.311L406.329 217.501L406.328 217.497L403.44 218.311ZM418.579 243.478L416.51 245.65L416.51 245.65L418.579 243.478ZM444.45 257.38L443.781 260.304L443.787 260.306L444.45 257.38ZM379.215 288.583L380.724 291.176L379.215 288.583ZM308.081 352.526L310.5 354.301L308.081 352.526ZM362.789 578.567L361.013 580.985L362.789 578.567ZM298.61 507.171L296.017 508.68L298.61 507.171ZM268.373 439.54L271.297 440.21L271.299 440.203L268.373 439.54ZM254.471 465.411L256.643 467.481V467.481L254.471 465.411ZM229.304 480.55L228.494 477.662L228.49 477.663L229.304 480.55ZM293.906 609.168L292.749 606.4L293.906 609.168ZM266.133 634.53L263.481 633.128L263.481 633.128L266.133 634.53ZM250.618 663.875L249.215 666.527L251.868 667.93L253.27 665.277L250.618 663.875ZM151.762 582.542L154.094 580.655L151.762 582.542ZM92.8366 468.896L95.7228 468.078L92.8366 468.896ZM83.3309 341.236L80.3554 340.854L83.3309 341.236ZM124.775 220.116L122.192 218.59L122.189 218.595L124.775 220.116ZM120.129 156.831L117.796 158.717L117.796 158.718L120.129 156.831ZM110.019 144.328L112.352 142.442L110.035 139.576L107.699 142.426L110.019 144.328ZM39.0484 483.09L41.9368 482.279L39.0484 483.09ZM126.601 638.262L124.413 640.315L126.601 638.262ZM275.928 735.447L274.937 738.279L277.374 739.132L278.581 736.849L275.928 735.447ZM295.564 698.295L298.216 699.697L298.216 699.697L295.564 698.295ZM319.927 674.491L321.267 677.176H321.267L319.927 674.491ZM353.597 669.338L354.073 666.376L354.072 666.376L353.597 669.338ZM497.573 679.944L497.526 682.943L501.552 683.006L500.46 679.131L497.573 679.944ZM619.105 591.65L621.874 590.494L619.105 591.65ZM644.374 619.321L642.971 621.973L642.971 621.973L644.374 619.321ZM673.609 634.78L676.262 636.182L677.664 633.53L675.012 632.128L673.609 634.78ZM592.585 733.265L594.472 735.597H594.472L592.585 733.265ZM479.366 791.966L478.548 789.08L479.366 791.966ZM231.514 760.136L229.988 762.719L229.993 762.722L231.514 760.136ZM199.265 752.579L199.045 749.587L199.265 752.579ZM168.465 764.762L170.352 767.095L170.352 767.095L168.465 764.762ZM156.01 774.834L154.123 772.501L151.258 774.818L154.108 777.154L156.01 774.834ZM316.107 851.503L315.492 854.439L316.107 851.503ZM493.509 845.555L492.698 842.667L493.509 845.555ZM648.097 758.335L646.044 756.147L648.097 758.335ZM744.913 609.566L747.745 610.558L748.598 608.121L746.315 606.914L744.913 609.566ZM707.899 590.003L709.301 587.35L709.301 587.35L707.899 590.003ZM684.183 565.729L681.499 567.068L684.183 565.729ZM679.048 532.184L676.086 531.708L676.086 531.709L679.048 532.184ZM690.94 386.428L693.94 386.475L694.003 382.449L690.127 383.54L690.94 386.428ZM668.63 392.711L669.44 395.599L669.443 395.598L668.63 392.711ZM602.643 264.885L601.487 262.117L602.643 264.885ZM630.314 239.617L632.966 241.019L632.966 241.019L630.314 239.617ZM645.773 210.381L647.175 207.729L644.523 206.327L643.121 208.979L645.773 210.381ZM802.959 404.625L800.073 405.443L802.959 404.625ZM812.424 531.808L809.449 531.426L812.424 531.808ZM771.129 652.477L773.712 654.003L773.715 653.998L771.129 652.477ZM763.573 684.726L760.581 684.946H760.581L763.573 684.726ZM775.756 715.525L778.088 713.639L778.088 713.639L775.756 715.525ZM785.827 727.981L783.494 729.867L785.811 732.733L788.147 729.883L785.827 727.981ZM862.496 567.884L865.432 568.499L862.496 567.884ZM856.548 390.482L859.437 389.671L856.548 390.482ZM769.328 235.893L767.141 237.947L769.328 235.893ZM620.56 139.077L621.551 136.246L619.114 135.392L617.907 137.675L620.56 139.077ZM600.996 176.091L598.343 174.689L598.343 174.69L600.996 176.091ZM543.177 204.943L542.701 207.905L542.702 207.905L543.177 204.943ZM397.18 196.083L397.227 193.083L393.201 193.02L394.293 196.896L397.18 196.083ZM565.222 266.813L564.353 269.684L564.356 269.685L565.222 266.813ZM469.954 258.337L470.303 261.317L469.954 258.337ZM531.465 297.088L533.241 294.67L531.465 297.088ZM595.408 368.222L592.815 369.731L595.408 368.222ZM589.563 521.212L587.145 519.436L589.563 521.212ZM518.167 585.391L519.676 587.984V587.984L518.167 585.391ZM629.416 433.873L626.492 433.204L626.49 433.21L629.416 433.873ZM643.369 407.905L645.541 409.974L643.369 407.905ZM617.178 554.229L614.306 553.36L614.305 553.363L617.178 554.229ZM625.654 458.961L622.674 459.31L625.654 458.961ZM450.128 618.42L450.797 615.495L450.791 615.494L450.128 618.42ZM491.29 657.633L488.401 658.443L488.402 658.446L491.29 657.633ZM331.467 607.235L332.336 604.364L332.333 604.363L331.467 607.235ZM427.091 615.747L427.439 618.727L427.091 615.747ZM337.273 79.8663C348.135 75.8109 357.498 68.533 364.108 59.0075L359.179 55.5869C353.266 64.1075 344.89 70.6177 335.174 74.2453L337.273 79.8663ZM233.342 145.197C263.217 116.621 298.574 94.3958 337.278 79.8644L335.169 74.2472C295.706 89.0636 259.656 111.724 229.194 140.861L233.342 145.197ZM163.456 246.128C179.692 208.108 203.466 173.773 233.342 145.197L229.194 140.861C198.733 169.998 174.493 205.006 157.938 243.772L163.456 246.128ZM138.874 366.407C138.857 325.065 147.219 284.148 163.456 246.128L157.938 243.772C141.383 282.538 132.857 324.256 132.874 366.409L138.874 366.407ZM163.553 486.665C147.286 448.658 138.89 407.749 138.874 366.407L132.874 366.409C132.891 408.562 141.451 450.274 158.037 489.026L163.553 486.665ZM189.165 472.437L159.614 485.088L161.976 490.603L191.526 477.952L189.165 472.437ZM227.543 470.127C214.869 466.425 201.303 467.241 189.165 472.437L191.526 477.953C202.385 473.305 214.522 472.574 225.861 475.886L227.543 470.127ZM243.904 477.908C238.937 474.483 233.421 471.844 227.543 470.127L225.861 475.886C231.119 477.422 236.054 479.783 240.498 482.848L243.904 477.908ZM239.245 480.885C247.183 527.15 266.585 571.771 297.369 610.072L302.046 606.313C271.92 568.832 252.929 525.163 245.158 479.87L239.245 480.885ZM232.783 556.665C252.363 578.476 274.444 596.505 298.162 610.763L301.253 605.621C278.043 591.667 256.425 574.019 237.248 552.657L232.783 556.665ZM205.877 540.97C216.266 543.262 225.675 548.751 232.784 556.665L237.248 552.656C229.301 543.809 218.783 537.673 207.17 535.111L205.877 540.97ZM174.865 543.889C184.643 539.7 195.489 538.679 205.877 540.97L207.17 535.111C195.557 532.549 183.433 533.691 172.502 538.374L174.865 543.889ZM137.457 559.911L174.864 543.889L172.502 538.374L135.095 554.395L137.457 559.911ZM80.0086 393.268C84.3485 451.94 102.775 508.699 133.725 558.731L138.827 555.575C108.385 506.363 90.261 450.535 85.9922 392.826L80.0086 393.268ZM108.795 221.703C85.5431 275.745 75.6686 334.597 80.0086 393.268L85.9922 392.826C81.7234 335.117 91.436 277.229 114.306 224.074L108.795 221.703ZM213.573 82.8325C167.988 120.024 132.046 167.661 108.795 221.703L114.306 224.074C137.176 170.918 172.529 124.063 217.366 87.4815L213.573 82.8325ZM370.649 8.06233C313.04 19.9926 259.158 45.6411 213.573 82.8325L217.366 87.4815C262.203 50.9001 315.201 25.6722 371.866 13.9377L370.649 8.06233ZM374.257 26.5705V11H368.257V26.5705H374.257ZM364.108 59.0075C370.718 49.4821 374.259 38.1642 374.257 26.57L368.257 26.571C368.259 36.9422 365.091 47.0662 359.179 55.5869L364.108 59.0075ZM341.76 649.361L349.265 631.873L343.752 629.507L336.246 646.994L341.76 649.361ZM297.369 610.072C308.989 624.528 322.228 638.081 337.08 650.481L340.925 645.875C326.379 633.73 313.418 620.461 302.046 606.313L297.369 610.072ZM298.162 610.763C313.338 619.887 329.181 627.465 345.465 633.503L347.551 627.877C331.612 621.967 316.106 614.55 301.253 605.621L298.162 610.763ZM337.018 563.821C332.805 561.523 328.661 559.087 324.592 556.517L321.387 561.589C325.564 564.228 329.819 566.729 334.144 569.088L337.018 563.821ZM324.592 556.517C298.464 540.009 276.015 518.297 258.645 492.734L253.683 496.106C271.516 522.351 294.563 544.642 321.387 561.589L324.592 556.517ZM258.643 492.731C254.658 486.88 249.648 481.868 243.904 477.908L240.498 482.848C245.637 486.391 250.119 490.874 253.685 496.109L258.643 492.731ZM252.202 335.219C235.203 382.002 230.917 432.353 239.245 480.885L245.158 479.87C237.005 432.353 241.203 383.059 257.841 337.268L252.202 335.219ZM253.838 339.001L255.187 339.579L257.553 334.066L256.205 333.487L253.838 339.001ZM255.184 339.578C264.546 343.608 274.821 345.039 284.928 343.721L284.152 337.772C275.115 338.95 265.927 337.671 257.556 334.067L255.184 339.578ZM284.928 343.721C295.035 342.403 304.599 338.384 312.614 332.088L308.907 327.37C301.741 333 293.189 336.593 284.152 337.772L284.928 343.721ZM312.619 332.084C315.655 329.688 318.75 327.374 321.899 325.143L318.431 320.247C315.198 322.538 312.02 324.914 308.902 327.374L312.619 332.084ZM297.506 398.312C301.522 372.263 310.092 347.161 322.792 324.145L317.538 321.246C304.499 344.878 295.699 370.652 291.576 397.398L297.506 398.312ZM302.282 489.59C294.441 459.815 292.815 428.743 297.506 398.312L291.576 397.398C286.759 428.643 288.429 460.546 296.48 491.118L302.282 489.59ZM338.004 564.686C321.534 542.121 309.41 516.654 302.282 489.59L296.48 491.118C303.798 518.906 316.246 545.054 333.158 568.223L338.004 564.686ZM572.616 551.504C551.203 566.276 527.36 577.245 502.134 583.889L503.662 589.691C529.56 582.87 554.039 571.608 576.023 556.443L572.616 551.504ZM502.134 583.889C472.247 591.76 441.059 593.392 410.514 588.683L409.6 594.613C440.959 599.448 472.978 597.772 503.662 589.691L502.134 583.889ZM410.514 588.683C384.725 584.707 359.86 576.283 337.018 563.821L334.144 569.088C357.596 581.882 383.123 590.531 409.599 594.613L410.514 588.683ZM343.084 571.379C341.348 569.178 339.654 566.946 338.004 564.686L333.158 568.223C334.852 570.544 336.591 572.835 338.374 575.095L343.084 571.379ZM354.721 599.07C353.403 588.963 349.384 579.398 343.088 571.384L338.37 575.09C344 582.257 347.593 590.809 348.772 599.846L354.721 599.07ZM350.578 628.814C354.608 619.452 356.039 609.177 354.721 599.07L348.772 599.846C349.95 608.883 348.671 618.07 345.067 626.441L350.578 628.814ZM349.265 631.873L350.579 628.811L345.066 626.444L343.752 629.507L349.265 631.873ZM345.465 633.503C391.803 650.683 441.706 655.387 489.949 647.712L489.007 641.786C441.769 649.301 392.909 644.694 347.551 627.877L345.465 633.503ZM486.903 643.21C484.44 647.333 482.492 651.777 481.127 656.451L486.886 658.133C488.107 653.952 489.85 649.975 492.053 646.288L486.903 643.21ZM481.127 656.451C477.425 669.124 478.241 682.69 483.437 694.829L488.953 692.468C484.304 681.608 483.574 669.471 486.886 658.133L481.127 656.451ZM483.437 694.829L496.088 724.38L501.603 722.018L488.952 692.467L483.437 694.829ZM497.665 720.441C459.658 736.708 418.749 745.104 377.407 745.12L377.409 751.12C419.562 751.103 461.274 742.543 500.026 725.957L497.665 720.441ZM377.407 745.12C336.065 745.137 295.148 736.774 257.128 720.538L254.772 726.056C293.538 742.611 335.256 751.137 377.409 751.12L377.407 745.12ZM257.128 720.538C219.108 704.301 184.773 680.527 156.197 650.652L151.861 654.799C180.998 685.261 216.006 709.501 254.772 726.056L257.128 720.538ZM156.197 650.652C127.621 620.776 105.396 585.419 90.8644 546.715L85.2472 548.824C100.064 588.287 122.724 624.338 151.861 654.799L156.197 650.652ZM90.8663 546.721C86.8109 535.859 79.5329 526.496 70.0075 519.886L66.5868 524.815C75.1075 530.728 81.6177 539.103 85.2453 548.819L90.8663 546.721ZM70.0075 519.886C60.4821 513.276 49.1642 509.734 37.57 509.736L37.571 515.736C47.9422 515.735 58.0662 518.902 66.5868 524.815L70.0075 519.886ZM37.5705 509.736H22V515.736H37.5705V509.736ZM19.0623 513.345C30.9926 570.954 56.6411 624.836 93.8325 670.421L98.4815 666.628C61.9001 621.791 36.6722 568.792 24.9377 512.128L19.0623 513.345ZM93.8325 670.421C131.024 716.005 178.661 751.948 232.703 775.199L235.074 769.688C181.918 746.818 135.063 711.465 98.4815 666.628L93.8325 670.421ZM232.703 775.199C286.745 798.451 345.597 808.325 404.268 803.985L403.826 798.001C346.117 802.27 288.229 792.558 235.074 769.688L232.703 775.199ZM404.268 803.985C462.94 799.645 519.699 781.219 569.731 750.269L566.575 745.166C517.363 775.608 461.535 793.733 403.826 798.001L404.268 803.985ZM570.911 746.536L554.889 709.129L549.374 711.492L565.395 748.899L570.911 746.536ZM554.889 709.129C550.699 699.35 549.679 688.505 551.97 678.116L546.111 676.824C543.549 688.437 544.691 700.561 549.374 711.492L554.889 709.129ZM551.97 678.116C554.262 667.728 559.751 658.318 567.665 651.21L563.656 646.746C554.809 654.692 548.673 665.211 546.111 676.824L551.97 678.116ZM567.665 651.21C587.22 633.656 603.736 614.089 617.219 593.136L612.174 589.889C598.978 610.395 582.81 629.551 563.657 646.746L567.665 651.21ZM616.507 593.905C633.481 581.061 649.309 566.07 663.608 548.941L659.002 545.096C644.996 561.873 629.499 576.55 612.886 589.12L616.507 593.905ZM662.488 544.261L642.515 535.688L640.148 541.202L660.121 549.775L662.488 544.261ZM644.141 539.498C661.426 493.395 666.334 443.717 658.959 395.63L653.029 396.54C660.25 443.625 655.443 492.263 638.523 537.392L644.141 539.498ZM654.437 398.649C658.643 401.203 663.191 403.216 667.981 404.615L669.663 398.856C665.38 397.605 661.312 395.804 657.551 393.521L654.437 398.649ZM667.981 404.615C680.61 408.304 694.129 407.49 706.225 402.313L703.864 396.797C693.047 401.427 680.957 402.155 669.663 398.856L667.981 404.615ZM706.225 402.313L735.667 389.71L733.306 384.194L703.864 396.797L706.225 402.313ZM731.728 388.133C747.935 425.995 756.299 466.749 756.316 507.933L762.316 507.931C762.299 465.935 753.77 424.379 737.244 385.772L731.728 388.133ZM756.316 507.933C756.332 549.118 748.001 589.878 731.825 627.753L737.343 630.11C753.837 591.489 762.333 549.926 762.316 507.931L756.316 507.933ZM731.825 627.753C715.649 665.629 691.963 699.833 662.199 728.301L666.346 732.637C696.696 703.609 720.848 668.731 737.343 630.11L731.825 627.753ZM662.199 728.301C632.435 756.768 597.209 778.909 558.649 793.385L560.758 799.002C600.077 784.241 635.996 761.665 666.346 732.637L662.199 728.301ZM558.654 793.383C547.83 797.424 538.5 804.675 531.913 814.167L536.842 817.588C542.732 809.101 551.075 802.617 560.753 799.004L558.654 793.383ZM531.913 814.167C525.326 823.658 521.797 834.936 521.799 846.489L527.799 846.488C527.797 836.158 530.953 826.074 536.842 817.588L531.913 814.167ZM521.799 846.488V862H527.799V846.488H521.799ZM525.407 864.938C582.806 853.052 636.491 827.499 681.909 790.447L678.117 785.798C633.446 822.24 580.645 847.372 524.191 859.062L525.407 864.938ZM681.909 790.447C727.328 753.395 763.139 705.936 786.305 652.096L780.794 649.725C758.009 702.678 722.787 749.356 678.117 785.798L681.909 790.447ZM786.305 652.096C809.472 598.256 819.31 539.624 814.986 481.172L809.002 481.615C813.255 539.104 803.579 596.771 780.794 649.725L786.305 652.096ZM814.986 481.172C810.662 422.72 792.303 366.173 761.466 316.328L756.363 319.484C786.693 368.509 804.749 424.125 809.002 481.615L814.986 481.172ZM757.734 315.148L720.464 331.109L722.826 336.625L760.096 320.664L757.734 315.148ZM720.464 331.109C710.724 335.282 699.92 336.299 689.572 334.017L688.28 339.876C699.852 342.428 711.934 341.291 722.827 336.624L720.464 331.109ZM689.572 334.017C679.224 331.734 669.851 326.267 662.771 318.384L658.307 322.393C666.225 331.209 676.707 337.323 688.28 339.876L689.572 334.017ZM662.771 318.385C645.771 299.449 626.878 283.374 606.662 270.153L603.378 275.174C623.161 288.112 641.657 303.847 658.306 322.393L662.771 318.385ZM607.439 270.89C594.046 252.625 578.209 235.636 559.94 220.386L556.096 224.992C573.989 239.929 589.493 256.563 602.6 274.438L607.439 270.89ZM555.261 221.506L546.408 242.132L551.922 244.498L560.775 223.872L555.261 221.506ZM546.409 242.129C546.249 242.5 546.093 242.873 545.941 243.248L551.502 245.502C551.638 245.167 551.777 244.834 551.92 244.501L546.409 242.129ZM549.757 241.559C503.2 224.448 453.064 219.955 404.677 227.981L405.659 233.9C453.034 226.042 502.118 230.442 547.687 247.191L549.757 241.559ZM407.625 232.661C411.153 227.623 413.865 222.008 415.615 216.017L409.856 214.334C408.291 219.693 405.866 224.714 402.71 229.219L407.625 232.661ZM415.615 216.017C419.304 203.387 418.49 189.868 413.313 177.773L407.797 180.133C412.427 190.95 413.155 203.04 409.856 214.334L415.615 216.017ZM413.313 177.772L400.71 148.331L395.194 150.692L407.797 180.134L413.313 177.772ZM399.133 152.269C436.995 136.062 477.749 127.698 518.933 127.682L518.931 121.682C476.935 121.699 435.379 130.228 396.772 146.753L399.133 152.269ZM518.933 127.682C560.118 127.665 600.878 135.996 638.753 152.173L641.11 146.655C602.489 130.16 560.926 121.665 518.931 121.682L518.933 127.682ZM638.753 152.173C676.629 168.349 710.833 192.034 739.3 221.798L743.637 217.651C714.609 187.301 679.731 163.149 641.11 146.655L638.753 152.173ZM739.3 221.798C767.768 251.563 789.908 286.788 804.385 325.348L810.002 323.24C795.241 283.921 772.665 248.001 743.637 217.651L739.3 221.798ZM804.383 325.343C808.424 336.167 815.675 345.498 825.167 352.085L828.588 347.155C820.101 341.266 813.617 332.923 810.004 323.245L804.383 325.343ZM825.167 352.085C834.658 358.672 845.936 362.2 857.489 362.198L857.488 356.198C847.158 356.2 837.074 353.045 828.588 347.155L825.167 352.085ZM857.488 362.198H873V356.198H857.488V362.198ZM875.938 358.59C864.052 301.191 838.499 247.506 801.447 202.088L796.798 205.881C833.24 250.551 858.372 303.353 870.062 359.807L875.938 358.59ZM801.447 202.088C764.395 156.67 716.936 120.859 663.096 97.6923L660.725 103.204C713.678 125.989 760.356 161.21 796.798 205.881L801.447 202.088ZM663.096 97.6923C609.256 74.5258 550.624 64.6873 492.172 69.0115L492.615 74.9951C550.104 70.7422 607.771 80.4187 660.725 103.204L663.096 97.6923ZM492.172 69.0115C433.72 73.3356 377.173 91.6947 327.327 122.532L330.484 127.634C379.509 97.3049 435.125 79.248 492.615 74.9951L492.172 69.0115ZM326.148 126.264L342.109 163.533L347.625 161.171L331.664 123.902L326.148 126.264ZM342.109 163.534C346.282 173.274 347.299 184.077 345.017 194.425L350.876 195.718C353.428 184.145 352.291 172.064 347.624 161.171L342.109 163.534ZM345.017 194.425C342.734 204.773 337.267 214.146 329.384 221.227L333.393 225.691C342.209 217.772 348.323 207.29 350.876 195.718L345.017 194.425ZM329.385 221.226C308.245 240.205 290.671 261.544 276.652 284.448L281.77 287.58C295.487 265.167 312.689 244.279 333.393 225.691L329.385 221.226ZM277.368 283.647C261.618 295.908 246.896 310.055 233.517 326.08L238.123 329.925C251.226 314.23 265.64 300.38 281.054 288.381L277.368 283.647ZM234.637 330.76L253.838 339.001L256.205 333.487L237.003 325.246L234.637 330.76ZM276.652 284.448C266.716 300.682 258.567 317.7 252.202 335.219L257.841 337.268C264.071 320.122 272.046 303.467 281.77 287.58L276.652 284.448ZM404.677 227.981C359.234 235.518 315.325 254.099 277.368 283.647L281.054 288.381C318.198 259.466 361.171 241.279 405.659 233.9L404.677 227.981ZM393.091 247.008C398.806 243.115 403.717 238.242 407.625 232.661L402.71 229.219C399.215 234.21 394.824 238.568 389.713 242.05L393.091 247.008ZM329.549 312.711C345.994 286.68 367.623 264.316 393.088 247.01L389.716 242.048C363.569 259.816 341.361 282.779 324.477 309.507L329.549 312.711ZM322.792 324.145C324.928 320.273 327.181 316.46 329.549 312.711L324.477 309.507C322.045 313.355 319.732 317.27 317.538 321.246L322.792 324.145ZM321.899 325.143C343.817 309.618 368.373 298.138 394.407 291.282L392.879 285.48C366.148 292.52 340.935 304.307 318.431 320.247L321.899 325.143ZM394.407 291.282C424.183 283.44 455.254 281.815 485.685 286.506L486.6 280.576C455.354 275.759 423.451 277.429 392.879 285.48L394.407 291.282ZM485.685 286.506C513.77 290.835 540.753 300.459 565.208 314.844L568.25 309.672C543.14 294.903 515.435 285.021 486.6 280.576L485.685 286.506ZM564.237 313.927C578.136 334.677 588.507 357.63 594.889 381.86L600.691 380.332C594.139 355.456 583.491 331.891 569.222 310.588L564.237 313.927ZM594.889 381.86C602.76 411.747 604.392 442.935 599.683 473.48L605.613 474.394C610.448 443.035 608.772 411.015 600.691 380.332L594.889 381.86ZM599.683 473.48C595.386 501.349 585.895 528.138 571.727 552.463L576.912 555.483C591.457 530.51 601.202 503.006 605.613 474.394L599.683 473.48ZM553.93 299.765C557.554 304.358 560.992 309.082 564.237 313.927L569.222 310.588C565.89 305.614 562.361 300.763 558.641 296.048L553.93 299.765ZM542.251 271.977C543.574 282.119 547.607 291.717 553.926 299.76L558.644 296.053C552.992 288.859 549.384 280.273 548.201 271.201L542.251 271.977ZM545.941 243.248C542.255 252.339 540.981 262.236 542.251 271.977L548.201 271.201C547.064 262.487 548.205 253.634 551.502 245.502L545.941 243.248ZM606.662 270.153C588.609 258.347 569.505 248.818 549.757 241.559L547.687 247.191C567.015 254.295 585.711 263.62 603.378 275.174L606.662 270.153ZM658.959 395.63C652.171 351.366 634.975 308.441 607.439 270.89L602.6 274.438C629.548 311.187 646.383 353.201 653.029 396.54L658.959 395.63ZM636.989 382.091C641.587 388.841 647.553 394.469 654.437 398.649L657.551 393.521C651.394 389.782 646.06 384.749 641.948 378.713L636.989 382.091ZM571.286 318.55C597.317 334.994 619.682 356.623 636.987 382.088L641.95 378.716C624.181 352.569 601.218 330.361 574.491 313.477L571.286 318.55ZM565.208 314.844C567.252 316.046 569.279 317.281 571.286 318.55L574.491 313.477C572.429 312.175 570.349 310.906 568.25 309.672L565.208 314.844ZM584.229 542.93C580.445 545.916 576.572 548.775 572.616 551.504L576.023 556.443C580.084 553.641 584.061 550.706 587.945 547.641L584.229 542.93ZM612.017 531.251C601.874 532.574 592.277 536.607 584.234 542.926L587.94 547.644C595.135 541.992 603.72 538.384 612.793 537.201L612.017 531.251ZM641.865 535.409C632.47 531.365 622.159 529.928 612.017 531.251L612.793 537.201C621.865 536.018 631.089 537.302 639.492 540.92L641.865 535.409ZM642.515 535.688L641.862 535.408L639.495 540.922L640.148 541.202L642.515 535.688ZM617.219 593.136C628.206 576.062 637.178 558.07 644.141 539.498L638.523 537.392C631.707 555.57 622.926 573.179 612.174 589.889L617.219 593.136ZM489.949 647.712C534.995 640.546 578.601 622.586 616.507 593.905L612.886 589.12C575.79 617.189 533.109 634.77 489.007 641.786L489.949 647.712ZM503.731 625.35C496.843 630.042 491.119 636.154 486.903 643.21L492.053 646.288C495.825 639.974 500.946 634.507 507.109 630.309L503.731 625.35ZM567.517 559.401C551.009 585.53 529.297 607.978 503.734 625.348L507.106 630.311C533.351 612.478 555.641 589.431 572.589 562.606L567.517 559.401ZM571.727 552.463C570.367 554.799 568.963 557.112 567.517 559.401L572.589 562.606C574.074 560.256 575.515 557.881 576.912 555.483L571.727 552.463ZM662.359 116.362C672.65 122.441 684.554 125.229 696.474 124.354L696.035 118.37C685.334 119.156 674.649 116.652 665.41 111.196L662.359 116.362ZM542.383 75.31C584.74 80.7478 625.555 94.7138 662.364 116.365L665.406 111.193C627.898 89.131 586.308 74.8999 543.147 69.3588L542.383 75.31ZM415.923 84.7262C457.007 73.0754 500.026 69.8722 542.383 75.31L543.147 69.3588C499.986 63.8178 456.15 67.0818 414.286 78.9538L415.923 84.7262ZM303.346 143.097C336.542 116.234 374.839 96.377 415.923 84.7262L414.286 78.9538C372.422 90.8258 333.398 111.059 299.571 138.433L303.346 143.097ZM222.778 241.024C242.741 203.273 270.149 169.96 303.346 143.097L299.571 138.433C265.744 165.806 237.816 199.752 217.474 238.219L222.778 241.024ZM250.873 252.484L221.528 236.969L218.724 242.273L248.068 257.789L250.873 252.484ZM277.601 281.753C272.353 269.193 262.906 258.847 250.873 252.484L248.068 257.788C258.871 263.501 267.353 272.79 272.064 284.066L277.601 281.753ZM281.966 299.896C281.491 293.699 280.032 287.572 277.601 281.753L272.064 284.066C274.247 289.291 275.557 294.791 275.984 300.355L281.966 299.896ZM276.722 298.145C244.737 334.542 221.511 379.072 210.744 428.638L216.607 429.911C227.151 381.374 249.895 337.761 281.229 302.106L276.722 298.145ZM211.701 342.125C206.902 371.987 206.76 401.405 210.704 429.689L216.647 428.86C212.784 401.162 212.922 372.345 217.625 343.076L211.701 342.125ZM206.825 310.27C211.739 320.118 213.444 331.258 211.7 342.125L217.625 343.076C219.567 330.971 217.668 318.561 212.194 307.591L206.825 310.27ZM184.304 287.22C194.035 292.361 201.911 300.422 206.825 310.27L212.194 307.591C206.72 296.621 197.947 287.642 187.107 281.915L184.304 287.22ZM147.152 267.584L184.304 287.22L187.107 281.915L149.955 262.279L147.152 267.584ZM243.686 113.417C199.403 154.984 165.798 206.618 145.722 263.94L151.385 265.923C171.142 209.512 204.213 158.698 247.792 117.792L243.686 113.417ZM400.1 25.1635C341.624 41.576 287.969 71.8497 243.686 113.417L247.792 117.792C291.372 76.8847 344.174 47.092 401.722 30.9403L400.1 25.1635ZM579.594 19.1379C520.148 6.68406 458.576 8.75103 400.1 25.1635L401.722 30.9403C459.269 14.7886 519.862 12.7544 578.363 25.0104L579.594 19.1379ZM741.575 96.7027C694.603 58.1989 639.039 31.5917 579.594 19.1379L578.363 25.0104C636.864 37.2664 691.546 63.4509 737.771 101.343L741.575 96.7027ZM729.056 111.465L741.559 101.356L737.786 96.69L725.284 106.799L729.056 111.465ZM696.474 124.354C708.395 123.479 719.763 118.981 729.056 111.465L725.283 106.8C716.941 113.547 706.736 117.584 696.035 118.37L696.474 124.354ZM207.889 489.698L226.81 484.369L225.184 478.594L206.262 483.923L207.889 489.698ZM210.744 428.638C206.678 447.354 204.39 466.785 204.076 486.763L210.075 486.857C210.383 467.278 212.625 448.242 216.607 429.911L210.744 428.638ZM210.704 429.689C213.23 447.799 217.43 465.443 223.154 482.439L228.84 480.524C223.234 463.877 219.12 446.597 216.647 428.86L210.704 429.689ZM273.432 430.449C272.544 425.579 271.81 420.676 271.234 415.746L265.274 416.443C265.866 421.5 266.619 426.53 267.53 431.525L273.432 430.449ZM271.234 415.746C267.523 384.034 270.384 351.898 279.637 321.34L273.895 319.601C264.403 350.947 261.468 383.913 265.274 416.443L271.234 415.746ZM279.638 321.337C281.747 314.343 282.517 307.073 281.966 299.896L275.984 300.355C276.478 306.798 275.787 313.325 273.894 319.604L279.638 321.337ZM402.052 214.011C353.47 230.729 310.274 259.965 276.722 298.145L281.229 302.106C314.101 264.7 356.42 236.059 404.005 219.685L402.052 214.011ZM400.141 217.661L400.553 219.124L406.328 217.497L405.916 216.035L400.141 217.661ZM400.552 219.121C403.389 229.238 408.902 238.403 416.51 245.65L420.649 241.306C413.822 234.803 408.875 226.579 406.329 217.501L400.552 219.121ZM416.51 245.65C424.118 252.898 433.539 257.96 443.781 260.304L445.12 254.456C435.929 252.352 427.475 247.81 420.649 241.306L416.51 245.65ZM443.787 260.306C447.681 261.188 451.547 262.17 455.381 263.25L457.008 257.475C453.074 256.367 449.108 255.359 445.114 254.454L443.787 260.306ZM380.724 291.176C404.255 277.484 429.984 268.065 456.719 263.316L455.67 257.409C428.242 262.28 401.847 271.943 377.706 285.99L380.724 291.176ZM310.5 354.301C329.326 328.662 353.23 307.174 380.724 291.176L377.706 285.99C349.501 302.402 324.977 324.447 305.663 350.75L310.5 354.301ZM273.38 431.759C280.81 403.877 293.391 377.602 310.5 354.301L305.663 350.75C288.112 374.654 275.204 401.61 267.582 430.214L273.38 431.759ZM436.352 611.731C410.58 604.124 386.285 592.096 364.564 576.149L361.013 580.985C383.294 597.344 408.217 609.683 434.654 617.486L436.352 611.731ZM364.564 576.149C338.828 557.253 317.26 533.259 301.203 505.662L296.017 508.68C312.488 536.988 334.613 561.601 361.013 580.985L364.564 576.149ZM301.203 505.662C287.642 482.356 278.257 456.901 273.432 430.449L267.53 431.525C272.479 458.661 282.106 484.772 296.017 508.68L301.203 505.662ZM271.299 440.203C271.94 437.373 272.634 434.558 273.38 431.759L267.582 430.214C266.817 433.086 266.105 435.974 265.447 438.877L271.299 440.203ZM256.643 467.481C263.891 459.873 268.953 450.452 271.297 440.21L265.449 438.871C263.345 448.062 258.803 456.516 252.299 463.342L256.643 467.481ZM230.114 483.439C240.231 480.601 249.396 475.089 256.643 467.481L252.299 463.342C245.796 470.169 237.572 475.116 228.494 477.662L230.114 483.439ZM226.81 484.369L230.117 483.438L228.49 477.663L225.184 478.594L226.81 484.369ZM223.154 482.439C239.437 530.788 268.051 573.902 305.524 607.648L309.539 603.189C272.822 570.124 244.79 527.883 228.84 480.524L223.154 482.439ZM307.109 602.448C302.208 603.146 297.381 604.465 292.749 606.4L295.062 611.936C299.221 610.199 303.554 609.015 307.954 608.388L307.109 602.448ZM292.749 606.4C280.19 611.647 269.844 621.095 263.481 633.128L268.785 635.933C274.498 625.13 283.786 616.647 295.062 611.936L292.749 606.4ZM263.481 633.128L247.966 662.473L253.27 665.277L268.785 635.933L263.481 633.128ZM252.02 661.223C214.27 641.259 180.957 613.852 154.094 580.655L149.429 584.43C176.803 618.256 210.748 646.184 249.215 666.527L252.02 661.223ZM154.094 580.655C127.23 547.459 107.374 509.162 95.7228 468.078L89.9504 469.715C101.822 511.579 122.056 550.603 149.429 584.43L154.094 580.655ZM95.7228 468.078C84.0719 426.994 80.8688 383.974 86.3065 341.618L80.3554 340.854C74.8144 384.014 78.0784 427.851 89.9504 469.715L95.7228 468.078ZM86.3065 341.618C91.7443 299.261 105.71 258.446 127.361 221.637L122.189 218.595C100.128 256.103 85.8964 297.693 80.3554 340.854L86.3065 341.618ZM127.358 221.642C133.437 211.35 136.226 199.447 135.35 187.527L129.367 187.966C130.152 198.667 127.649 209.352 122.192 218.59L127.358 221.642ZM135.35 187.527C134.475 175.606 129.978 164.238 122.461 154.944L117.796 158.718C124.544 167.06 128.581 177.265 129.367 187.966L135.35 187.527ZM122.461 154.945L112.352 142.442L107.686 146.214L117.796 158.717L122.461 154.945ZM107.699 142.426C69.1955 189.397 42.5883 244.962 30.1345 304.407L36.007 305.638C48.2629 247.137 74.4474 192.455 112.339 146.23L107.699 142.426ZM30.1345 304.407C17.6806 363.852 19.7476 425.424 36.1601 483.901L41.9368 482.279C25.7851 424.732 23.751 364.138 36.007 305.638L30.1345 304.407ZM36.1601 483.901C52.5725 542.377 82.8462 596.032 124.413 640.315L128.788 636.209C87.8813 592.629 58.0885 539.826 41.9368 482.279L36.1601 483.901ZM124.413 640.315C165.981 684.598 217.615 718.203 274.937 738.279L276.92 732.616C220.509 712.859 169.695 679.788 128.788 636.209L124.413 640.315ZM278.581 736.849L298.216 699.697L292.911 696.893L273.276 734.046L278.581 736.849ZM298.216 699.697C303.358 689.966 311.419 682.09 321.267 677.176L318.588 671.807C307.618 677.281 298.638 686.054 292.911 696.894L298.216 699.697ZM321.267 677.176C331.115 672.262 342.255 670.557 353.122 672.3L354.072 666.376C341.967 664.434 329.558 666.333 318.588 671.807L321.267 677.176ZM353.121 672.3C379.903 676.604 406.327 677.162 431.897 674.386L431.25 668.421C406.208 671.139 380.322 670.594 354.073 666.376L353.121 672.3ZM430.851 674.315C452.181 679.607 474.491 682.583 497.526 682.943L497.62 676.944C475.043 676.591 453.186 673.674 432.296 668.492L430.851 674.315ZM500.46 679.131L494.375 657.522L488.6 659.148L494.685 680.757L500.46 679.131ZM492.435 661.182C540.66 645.134 583.72 616.832 617.533 579.704L613.096 575.664C579.966 612.043 537.777 639.77 490.541 655.489L492.435 661.182ZM612.342 578.086C613.021 583.111 614.355 588.062 616.337 592.807L621.874 590.494C620.094 586.235 618.897 581.793 618.288 577.282L612.342 578.086ZM616.337 592.807C621.566 605.322 630.981 615.632 642.971 621.973L645.776 616.669C635.016 610.978 626.566 601.726 621.874 590.494L616.337 592.807ZM642.971 621.973L672.207 637.432L675.012 632.128L645.776 616.669L642.971 621.973ZM670.957 633.377C651.071 670.985 623.768 704.172 590.698 730.933L594.472 735.597C628.173 708.326 655.996 674.507 676.262 636.182L670.957 633.377ZM590.698 730.933C557.628 757.694 519.476 777.475 478.548 789.08L480.184 794.853C521.893 783.026 560.772 762.869 594.472 735.597L590.698 730.933ZM478.548 789.08C437.619 800.685 394.762 803.875 352.565 798.456L351.801 804.407C394.802 809.929 438.476 806.679 480.184 794.853L478.548 789.08ZM352.565 798.456C310.368 793.036 269.706 779.121 233.035 757.55L229.993 762.722C267.363 784.704 308.799 798.884 351.801 804.407L352.565 798.456ZM233.04 757.553C222.784 751.495 210.923 748.716 199.045 749.587L199.484 755.571C210.143 754.789 220.786 757.283 229.988 762.719L233.04 757.553ZM199.045 749.587C187.167 750.459 175.839 754.94 166.579 762.43L170.352 767.095C178.661 760.374 188.826 756.354 199.484 755.571L199.045 749.587ZM166.579 762.43L154.123 772.501L157.896 777.167L170.352 767.095L166.579 762.43ZM154.108 777.154C200.906 815.517 256.266 842.029 315.492 854.439L316.722 848.567C258.441 836.354 203.964 810.266 157.912 772.514L154.108 777.154ZM315.492 854.439C374.717 866.85 436.061 864.793 494.319 848.443L492.698 842.667C435.368 858.755 375.003 860.779 316.722 848.567L315.492 854.439ZM494.319 848.443C552.578 832.094 606.033 801.934 650.151 760.522L646.044 756.147C602.63 796.899 550.028 826.578 492.698 842.667L494.319 848.443ZM650.151 760.522C694.268 719.11 727.746 667.668 747.745 610.558L742.082 608.575C722.402 664.774 689.458 715.396 646.044 756.147L650.151 760.522ZM746.315 606.914L709.301 587.35L706.497 592.655L743.512 612.219L746.315 606.914ZM709.301 587.35C699.608 582.228 691.763 574.199 686.868 564.389L681.499 567.068C686.954 578 695.696 586.948 706.498 592.655L709.301 587.35ZM686.868 564.389C681.973 554.58 680.274 543.483 682.01 532.659L676.086 531.709C674.151 543.771 676.044 556.137 681.499 567.068L686.868 564.389ZM682.01 532.66C686.176 506.726 686.817 481.13 684.31 456.323L678.34 456.927C680.796 481.218 680.169 506.292 676.086 531.708L682.01 532.66ZM684.226 457.391C690.196 434.783 693.555 411.041 693.94 386.475L687.941 386.381C687.564 410.459 684.271 433.718 678.425 455.859L684.226 457.391ZM690.127 383.54L667.816 389.823L669.443 395.598L691.753 389.316L690.127 383.54ZM667.82 389.822C667.417 389.935 667.016 390.052 666.616 390.173L668.359 395.915C668.718 395.806 669.078 395.701 669.44 395.599L667.82 389.822ZM670.328 392.078C653.846 343.598 624.911 300.435 587.06 266.802L583.074 271.287C620.159 304.239 648.504 346.526 664.647 394.01L670.328 392.078ZM585.274 272.037C591.601 271.6 597.861 270.135 603.8 267.653L601.487 262.117C596.157 264.344 590.539 265.659 584.861 266.051L585.274 272.037ZM603.8 267.653C616.315 262.424 626.625 253.01 632.966 241.019L627.662 238.214C621.972 248.975 612.719 257.424 601.487 262.117L603.8 267.653ZM632.966 241.019L648.425 211.783L643.121 208.979L627.662 238.215L632.966 241.019ZM644.37 213.033C681.979 232.92 715.165 260.223 741.926 293.293L746.59 289.519C719.319 255.818 685.5 227.995 647.175 207.729L644.37 213.033ZM741.926 293.293C768.687 326.363 788.468 364.514 800.073 405.443L805.846 403.806C794.019 362.098 773.862 323.219 746.59 289.519L741.926 293.293ZM800.073 405.443C811.678 446.372 814.868 489.229 809.449 531.426L815.4 532.19C820.922 489.189 817.672 445.515 805.846 403.806L800.073 405.443ZM809.449 531.426C804.029 573.623 790.114 614.285 768.543 650.956L773.715 653.998C795.697 616.628 809.877 575.191 815.4 532.19L809.449 531.426ZM768.546 650.951C762.488 661.206 759.709 673.068 760.581 684.946L766.564 684.507C765.782 673.848 768.276 663.205 773.712 654.003L768.546 650.951ZM760.581 684.946C761.452 696.824 765.933 708.152 773.423 717.412L778.088 713.639C771.367 705.33 767.347 695.165 766.564 684.507L760.581 684.946ZM773.423 717.412L783.494 729.867L788.16 726.095L778.088 713.639L773.423 717.412ZM788.147 729.883C826.511 683.084 853.022 627.725 865.432 568.499L859.56 567.269C847.347 625.55 821.259 680.027 783.507 726.079L788.147 729.883ZM865.432 568.499C877.843 509.274 875.786 447.93 859.437 389.671L853.66 391.293C869.748 448.622 871.772 508.988 859.56 567.269L865.432 568.499ZM859.437 389.671C843.087 331.413 812.927 277.957 771.515 233.84L767.141 237.947C807.892 281.36 837.571 333.963 853.66 391.293L859.437 389.671ZM771.515 233.84C730.103 189.723 678.661 156.245 621.551 136.246L619.568 141.909C675.767 161.589 726.389 194.533 767.141 237.947L771.515 233.84ZM617.907 137.675L598.343 174.689L603.648 177.493L623.212 140.479L617.907 137.675ZM598.343 174.69C593.221 184.383 585.192 192.228 575.382 197.123L578.061 202.492C588.993 197.037 597.941 188.295 603.648 177.493L598.343 174.69ZM575.382 197.123C565.573 202.018 554.476 203.717 543.652 201.981L542.702 207.905C554.764 209.84 567.13 207.947 578.061 202.492L575.382 197.123ZM543.653 201.981C514.693 197.329 486.153 197.072 458.666 200.686L459.448 206.635C486.364 203.096 514.32 203.346 542.701 207.905L543.653 201.981ZM459.739 200.739C439.678 196.056 418.771 193.421 397.227 193.083L397.133 199.082C418.247 199.414 438.729 201.996 458.375 206.582L459.739 200.739ZM394.293 196.896L400.141 217.661L405.916 216.035L400.068 195.269L394.293 196.896ZM458.666 200.686C439.189 203.247 420.243 207.752 402.052 214.011L404.005 219.685C421.821 213.554 440.375 209.143 459.448 206.635L458.666 200.686ZM587.06 266.802C551.513 235.215 508.096 212.028 459.739 200.739L458.375 206.582C505.729 217.637 548.251 240.344 583.074 271.287L587.06 266.802ZM564.356 269.685C571.18 271.743 578.268 272.521 585.274 272.037L584.861 266.051C578.573 266.485 572.212 265.787 566.088 263.941L564.356 269.685ZM470.303 261.317C501.895 257.619 533.91 260.468 564.353 269.684L566.091 263.942C534.86 254.486 502.016 251.564 469.605 255.357L470.303 261.317ZM456.719 263.316C461.22 262.517 465.75 261.85 470.303 261.317L469.605 255.357C464.935 255.904 460.288 256.588 455.67 257.409L456.719 263.316ZM455.381 263.25C482.093 270.773 507.268 283.044 529.689 299.507L533.241 294.67C510.239 277.781 484.411 265.192 457.008 257.475L455.381 263.25ZM529.689 299.507C555.329 318.333 576.817 342.237 592.815 369.731L598.001 366.713C581.589 338.507 559.544 313.984 533.241 294.67L529.689 299.507ZM592.815 369.731C607.579 395.105 617.375 423.035 621.704 452.026L627.638 451.14C623.197 421.398 613.148 392.745 598.001 366.713L592.815 369.731ZM621.806 450.695C614.165 475.335 602.463 498.574 587.145 519.436L591.982 522.987C607.695 501.587 619.698 477.748 627.537 452.472L621.806 450.695ZM587.145 519.436C568.249 545.172 544.255 566.741 516.659 582.798L519.676 587.984C547.985 571.513 572.598 549.388 591.982 522.987L587.145 519.436ZM516.659 582.798C491.479 597.449 463.792 607.225 435.047 611.643L435.959 617.574C465.445 613.041 493.846 603.013 519.676 587.984L516.659 582.798ZM626.49 433.21C625.154 439.106 623.591 444.939 621.806 450.695L627.537 452.472C629.368 446.567 630.971 440.584 632.342 434.536L626.49 433.21ZM641.197 405.836C633.924 413.47 628.844 422.925 626.492 433.204L632.341 434.542C634.452 425.315 639.012 416.828 645.541 409.974L641.197 405.836ZM666.616 390.173C656.94 393.111 648.181 398.504 641.197 405.836L645.541 409.974C651.811 403.393 659.674 398.552 668.359 395.915L666.616 390.173ZM684.31 456.323C682.071 434.167 677.32 412.644 670.328 392.078L664.647 394.01C671.495 414.151 676.147 435.229 678.34 456.927L684.31 456.323ZM617.533 579.704C648.658 545.527 671.954 503.865 684.226 457.391L678.425 455.859C666.407 501.372 643.591 542.179 613.096 575.664L617.533 579.704ZM614.305 553.363C611.875 561.425 611.23 569.856 612.342 578.086L618.288 577.282C617.29 569.897 617.868 562.33 620.05 555.095L614.305 553.363ZM622.674 459.31C626.371 490.902 623.523 522.917 614.306 553.36L620.049 555.098C629.505 523.867 632.427 491.023 628.633 458.612L622.674 459.31ZM621.704 452.026C622.066 454.447 622.389 456.875 622.674 459.31L628.633 458.612C628.341 456.115 628.009 453.624 627.638 451.14L621.704 452.026ZM450.791 615.494C445.932 614.393 441.117 613.138 436.352 611.731L434.654 617.486C439.541 618.928 444.481 620.216 449.465 621.346L450.791 615.494ZM478.165 630.2C470.53 622.927 461.076 617.847 450.797 615.495L449.459 621.344C458.686 623.455 467.173 628.015 474.026 634.544L478.165 630.2ZM494.179 656.823C491.331 646.67 485.799 637.473 478.165 630.2L474.026 634.544C480.88 641.073 485.846 649.329 488.401 658.443L494.179 656.823ZM494.375 657.522L494.178 656.82L488.402 658.446L488.6 659.148L494.375 657.522ZM431.897 674.386C452.736 672.124 473.005 667.647 492.435 661.182L490.541 655.489C471.509 661.822 451.659 666.206 431.25 668.421L431.897 674.386ZM305.524 607.648C340.511 639.155 383.228 662.502 430.851 674.315L432.296 668.492C385.658 656.923 343.817 634.058 309.539 603.189L305.524 607.648ZM332.333 604.363C324.107 601.882 315.498 601.254 307.109 602.448L307.954 608.388C315.487 607.316 323.216 607.88 330.601 610.107L332.333 604.363ZM426.742 612.767C395.03 616.477 362.894 613.617 332.336 604.364L330.598 610.106C361.944 619.598 394.909 622.532 427.439 618.727L426.742 612.767ZM435.047 611.643C432.288 612.067 429.519 612.442 426.742 612.767L427.439 618.727C430.288 618.393 433.129 618.009 435.959 617.574L435.047 611.643Z" fill="#F5F5F5" mask="url(#path-1-inside-1_215_1765)"/>
</g>
<defs>
<filter id="filter0_di_215_1765" x="0" y="0" width="895" height="895" filterUnits="userSpaceOnUse" color-interpolation-filters="sRGB">
<feFlood flood-opacity="0" result="BackgroundImageFix"/>
<feColorMatrix in="SourceAlpha" type="matrix" values="0 0 0 0 0 0 0 0 0 0 0 0 0 0 0 0 0 0 127 0" result="hardAlpha"/>
<feOffset dy="11"/>
<feGaussianBlur stdDeviation="11"/>
<feComposite in2="hardAlpha" operator="out"/>
<feColorMatrix type="matrix" values="0 0 0 0 0 0 0 0 0 0 0 0 0 0 0 0 0 0 0.31 0"/>
<feBlend mode="normal" in2="BackgroundImageFix" result="effect1_dropShadow_215_1765"/>
<feBlend mode="normal" in="SourceGraphic" in2="effect1_dropShadow_215_1765" result="shape"/>
<feColorMatrix in="SourceAlpha" type="matrix" values="0 0 0 0 0 0 0 0 0 0 0 0 0 0 0 0 0 0 127 0" result="hardAlpha"/>
<feOffset dy="14"/>
<feGaussianBlur stdDeviation="4"/>
<feComposite in2="hardAlpha" operator="arithmetic" k2="-1" k3="1"/>
<feColorMatrix type="matrix" values="0 0 0 0 0 0 0 0 0 0 0 0 0 0 0 0 0 0 0.18 0"/>
<feBlend mode="normal" in2="shape" result="effect2_innerShadow_215_1765"/>
</filter>
</defs>
</svg>
