<svg width="366" height="426" viewBox="0 0 366 426" fill="none" xmlns="http://www.w3.org/2000/svg">
<mask id="path-1-inside-1_21_403" fill="white">
<path fill-rule="evenodd" clip-rule="evenodd" d="M116.885 110.713C126.873 121.77 143.03 124.226 157.121 119.382C214.875 99.526 281.45 114.499 324.977 162.682C383.181 227.113 378.133 326.527 313.703 384.731C249.273 442.935 149.858 437.888 91.6542 373.457C48.127 325.274 39.9742 257.524 65.5776 202.078C71.8242 188.55 71.0173 172.228 61.0292 161.171C52.4513 151.676 39.0978 148.645 26.3535 149.797C-1.73588 152.337 -30.636 142.1 -50.998 119.559C-85.3811 81.498 -82.3994 22.7702 -44.3381 -11.6129C-6.27676 -45.996 52.451 -43.0142 86.8341 -4.95292C107.196 17.5875 114.454 47.3761 109.082 75.0639C106.644 87.6259 108.307 101.218 116.885 110.713Z"/>
</mask>
<path fill-rule="evenodd" clip-rule="evenodd" d="M116.885 110.713C126.873 121.77 143.03 124.226 157.121 119.382C214.875 99.526 281.45 114.499 324.977 162.682C383.181 227.113 378.133 326.527 313.703 384.731C249.273 442.935 149.858 437.888 91.6542 373.457C48.127 325.274 39.9742 257.524 65.5776 202.078C71.8242 188.55 71.0173 172.228 61.0292 161.171C52.4513 151.676 39.0978 148.645 26.3535 149.797C-1.73588 152.337 -30.636 142.1 -50.998 119.559C-85.3811 81.498 -82.3994 22.7702 -44.3381 -11.6129C-6.27676 -45.996 52.451 -43.0142 86.8341 -4.95292C107.196 17.5875 114.454 47.3761 109.082 75.0639C106.644 87.6259 108.307 101.218 116.885 110.713Z" fill="url(#paint0_linear_21_403)"/>
<path d="M26.3535 149.797L26.0834 146.809L26.3535 149.797ZM109.082 75.0639L112.027 75.6353L109.082 75.0639ZM157.121 119.382L156.145 116.545L157.121 119.382ZM327.203 160.671C282.842 111.565 214.996 96.3123 156.145 116.545L158.096 122.219C214.755 102.74 280.058 117.433 322.751 164.693L327.203 160.671ZM315.714 386.957C381.374 327.643 386.518 226.331 327.203 160.671L322.751 164.693C379.844 227.894 374.893 325.412 311.692 382.505L315.714 386.957ZM89.4281 375.468C148.743 441.128 250.054 446.272 315.714 386.957L311.692 382.505C248.491 439.598 150.974 434.647 93.8804 371.446L89.4281 375.468ZM62.854 200.82C36.7647 257.319 45.0671 326.362 89.4281 375.468L93.8804 371.446C51.1869 324.185 43.1836 257.73 68.3013 203.335L62.854 200.82ZM-53.2242 121.57C-32.2031 144.84 -2.36463 155.406 26.6237 152.785L26.0834 146.809C-1.10713 149.268 -29.0689 139.359 -48.7719 117.548L-53.2242 121.57ZM-46.3491 -13.8391C-85.6399 21.6547 -88.7179 82.2795 -53.2242 121.57L-48.7719 117.548C-82.0443 80.7164 -79.1589 23.8857 -42.327 -9.38674L-46.3491 -13.8391ZM89.0603 -6.96394C53.5665 -46.2547 -7.05831 -49.3328 -46.3491 -13.8391L-42.327 -9.38674C-5.49522 -42.6592 51.3355 -39.7737 84.608 -2.94189L89.0603 -6.96394ZM112.027 75.6353C117.571 47.0614 110.081 16.306 89.0603 -6.96394L84.608 -2.94189C104.311 18.869 111.337 47.6907 106.137 74.4925L112.027 75.6353ZM63.2553 159.16C53.8209 148.717 39.3745 145.607 26.0834 146.809L26.6237 152.785C38.8211 151.682 51.0817 154.635 58.803 163.182L63.2553 159.16ZM106.137 74.4925C103.595 87.5935 105.225 102.281 114.659 112.724L119.111 108.702C111.39 100.155 109.694 87.6582 112.027 75.6353L106.137 74.4925ZM68.3013 203.335C74.9306 188.979 74.2262 171.305 63.2553 159.16L58.803 163.182C67.8084 173.151 68.7178 188.121 62.854 200.82L68.3013 203.335ZM156.145 116.545C142.918 121.092 128.117 118.671 119.111 108.702L114.659 112.724C125.63 124.869 143.142 127.36 158.096 122.219L156.145 116.545Z" fill="url(#paint1_linear_21_403)" mask="url(#path-1-inside-1_21_403)"/>
<defs>
<linearGradient id="paint0_linear_21_403" x1="282.229" y1="395.157" x2="18.2617" y2="-141.17" gradientUnits="userSpaceOnUse">
<stop stop-color="#FA4A4A" stop-opacity="0.08"/>
<stop offset="1" stop-color="#FF3030" stop-opacity="0"/>
</linearGradient>
<linearGradient id="paint1_linear_21_403" x1="293.52" y1="370.291" x2="125.853" y2="-71.7686" gradientUnits="userSpaceOnUse">
<stop stop-color="white"/>
<stop offset="1" stop-opacity="0"/>
</linearGradient>
</defs>
</svg>
