<svg width="56" height="56" viewBox="0 0 56 56" fill="none" xmlns="http://www.w3.org/2000/svg">
<path d="M48.4727 42C50.221 42 51.6117 40.8998 52.8605 39.3612C55.4164 36.2119 51.2197 33.6952 49.6193 32.4627C47.992 31.2097 46.1753 30.4999 44.3333 30.3333M42 25.6667C45.2216 25.6667 47.8333 23.055 47.8333 19.8333C47.8333 16.6117 45.2216 14 42 14" stroke="#2E86AB" stroke-width="3" stroke-linecap="round"/>
<path d="M7.52789 42C5.77952 42 4.38888 40.8998 3.14026 39.3612C0.584187 36.2119 4.78088 33.6952 6.3815 32.4627C8.00858 31.2097 9.82533 30.4999 11.6673 30.3333M12.834 25.6667C9.61232 25.6667 7.00065 23.055 7.00065 19.8333C7.00065 16.6117 9.61232 14 12.834 14" stroke="#2E86AB" stroke-width="3" stroke-linecap="round"/>
<path d="M18.8628 35.2595C16.4787 36.7337 10.2276 39.744 14.0349 43.5107C15.8948 45.3507 17.9662 46.6667 20.5704 46.6667H35.4309C38.0351 46.6667 40.1064 45.3507 41.9663 43.5107C45.7736 39.744 39.5226 36.7337 37.1384 35.2595C31.5475 31.8025 24.4537 31.8025 18.8628 35.2595Z" stroke="#2E86AB" stroke-width="3" stroke-linecap="round" stroke-linejoin="round"/>
<path d="M36.1673 17.4999C36.1673 22.0103 32.511 25.6666 28.0007 25.6666C23.4903 25.6666 19.834 22.0103 19.834 17.4999C19.834 12.9896 23.4903 9.33325 28.0007 9.33325C32.511 9.33325 36.1673 12.9896 36.1673 17.4999Z" stroke="#2E86AB" stroke-width="3"/>
</svg>
